<svg width="483" height="120" viewBox="0 0 483 120" fill="none" xmlns="http://www.w3.org/2000/svg">
<g clip-path="url(#clip0)">
<path d="M64.3977 0.255214L64.4191 0.3086C63.7284 0.341933 62.9831 0.399217 62.1617 0.491217C56.1071 0.793883 50.4657 1.95254 45.2991 3.96721L54.4764 15.1712C70.8244 11.5672 84.7457 24.7499 88.0217 42.4246C88.8884 47.1086 88.9511 51.7366 88.4284 56.3406C87.0657 67.7712 81.8991 77.3339 74.3444 84.3926C74.2871 84.4392 74.2297 84.4859 74.1777 84.5379L93.6164 99.7339L109.77 0.255214H64.3977Z" fill="url(#paint0_linear)"/>
<path d="M32.5312 11.5849C24.3179 18.6689 18.1899 29.3103 15.9752 42.0489L15.8925 42.5569C15.8925 42.5569 15.8965 42.5543 15.9019 42.5569C15.7392 43.5116 15.5845 44.4703 15.4685 45.4556C13.3845 63.5543 21.2779 78.6223 41.0099 78.6223C56.8805 78.6223 69.6805 66.2703 71.2739 51.1783C72.8245 36.5423 66.0019 27.0343 53.0872 27.9649C43.7619 28.4423 36.7045 36.0783 34.7352 43.6569C36.9925 40.9449 40.4565 39.0289 44.2165 39.0289C51.5832 39.0289 54.5192 45.0996 53.7045 52.1116C52.8152 59.8196 48.2912 65.4396 42.2952 65.5383C24.7672 65.8449 25.4512 26.4529 50.0005 16.5529C51.5099 15.9436 52.9992 15.4969 54.4765 15.1716L45.2992 3.96759C40.6325 5.78759 36.3485 8.31426 32.5312 11.5849Z" fill="#F89734"/>
<path d="M44.1958 96.0849C36.3172 96.0849 28.2945 94.3609 20.8598 90.1103C16.9212 87.8903 13.3678 84.9383 10.3385 81.6249C2.52651 71.8796 1.33318 60.4116 1.33318 60.4116C-1.79749 71.2729 0.663846 84.5956 7.89318 93.5343L4.27318 113.969H91.3065L94.6972 92.8489L74.1772 84.5383C66.6238 91.4676 56.4198 96.0543 44.2425 96.0849H44.1958Z" fill="#672C25"/>
<path d="M150.182 15.1376L152.521 0.256301H154.309L153.296 6.69763H156.678L162.181 0.256301H164.222L158.021 7.50563L162.332 15.1376H160.288L156.476 8.39763H153.03L151.97 15.1376H150.182Z" fill="#672C25"/>
<path d="M178.702 18.6461L179.273 15.1381H166.912L169.25 0.256725H171.038L168.968 13.4381H177.582L179.653 0.256725H181.441L179.369 13.4381H181.221L180.404 18.6461H178.702Z" fill="#672C25"/>
<path d="M196.784 15.1376L198.455 4.50697C198.522 4.08163 198.588 3.65763 198.655 3.23097L187.827 15.1376H186.17L188.507 0.256301H190.295L188.628 10.8656C188.562 11.2896 188.495 11.7163 188.428 12.1403L199.252 0.256301H200.911L198.572 15.1376H196.784Z" fill="#672C25"/>
<path d="M213.96 1.70131C209.916 1.70131 207.52 4.63464 207.04 7.69731C206.56 10.7586 208.034 13.6933 212.076 13.6933C216.12 13.6933 218.516 10.7586 218.996 7.69731C219.478 4.63464 218.003 1.70131 213.96 1.70131ZM214.228 -2.33469e-05C219.44 -2.33469e-05 221.41 3.84798 220.807 7.69731C220.202 11.5453 217.022 15.3933 211.81 15.3933C206.598 15.3933 204.628 11.5453 205.234 7.69731C205.838 3.84798 209.016 -2.33469e-05 214.228 -2.33469e-05" fill="#672C25"/>
<path d="M239.87 0.256057L237.533 15.1374H235.744L236.784 8.52672H227.954L226.916 15.1374H225.128L227.466 0.256057H229.254L228.222 6.82672H237.05L238.082 0.256057H239.87Z" fill="#672C25"/>
<path d="M256.404 0.256057L256.14 1.95739H247.885L247.126 6.78272H254.741L254.477 8.48272H246.86L246.081 13.4374H254.464L254.197 15.1374H244.026L246.364 0.256057H256.404Z" fill="#672C25"/>
<path d="M266.995 1.95727H263.613L262.636 8.16394H266.019C268.444 8.16394 270.536 7.56927 270.932 5.06127C271.329 2.5306 269.441 1.95727 266.995 1.95727ZM267.176 0.255935C270.625 0.255935 273.327 1.33994 272.74 5.06127C272.157 8.77993 269.113 9.86527 265.665 9.86527H262.368L261.54 15.1373H259.753L262.091 0.255935H267.176Z" fill="#672C25"/>
<path d="M291.137 0.256057L288.799 15.1374H287.01L288.053 8.52672H279.221L278.182 15.1374H276.395L278.733 0.256057H280.521L279.49 6.82672H288.317L289.35 0.256057H291.137Z" fill="#672C25"/>
<path d="M304.19 1.70131C300.146 1.70131 297.749 4.63464 297.27 7.69731C296.787 10.7586 298.263 13.6933 302.305 13.6933C306.347 13.6933 308.746 10.7586 309.225 7.69731C309.707 4.63464 308.231 1.70131 304.19 1.70131ZM304.457 -2.33469e-05C309.67 -2.33469e-05 311.638 3.84798 311.037 7.69731C310.431 11.5453 307.25 15.3933 302.041 15.3933C296.825 15.3933 294.857 11.5453 295.463 7.69731C296.066 3.84798 299.245 -2.33469e-05 304.457 -2.33469e-05" fill="#672C25"/>
<path d="M327.738 0.256057L327.47 1.95739H319.217L318.458 6.78272H326.073L325.809 8.48272H318.194L317.412 13.4374H325.796L325.528 15.1374H315.358L317.696 0.256057H327.738Z" fill="#672C25"/>
<path d="M347.868 1.70131C343.827 1.70131 341.427 4.63464 340.95 7.69731C340.466 10.7586 341.942 13.6933 345.986 13.6933C350.028 13.6933 352.423 10.7586 352.906 7.69731C353.384 4.63464 351.908 1.70131 347.868 1.70131ZM348.138 -2.33469e-05C353.347 -2.33469e-05 355.319 3.84798 354.714 7.69731C354.112 11.5453 350.93 15.3933 345.718 15.3933C340.506 15.3933 338.536 11.5453 339.142 7.69731C339.744 3.84798 342.923 -2.33469e-05 348.138 -2.33469e-05" fill="#672C25"/>
<path d="M365.134 13.4378C367.03 13.4378 369.01 13.1404 369.393 10.7151C369.777 8.27109 367.863 7.97376 365.994 7.97376H361.949L361.093 13.4378H365.134ZM366.171 6.27376C368.918 6.27376 371.77 7.07909 371.198 10.7151C370.626 14.3511 367.523 15.1378 364.779 15.1378H359.035L361.373 0.256424H371.694L371.426 1.95776H362.894L362.217 6.27376H366.171Z" fill="#672C25"/>
<path d="M394.018 18.6461L394.59 15.1381H375.781L378.121 0.256725H379.911L377.838 13.4381H384.477L386.546 0.256725H388.335L386.263 13.4381H392.902L394.971 0.256725H396.761L394.689 13.4381H396.538L395.719 18.6461H394.018Z" fill="#672C25"/>
<path d="M413.861 0.256057L413.593 1.95739H405.339L404.581 6.78272H412.198L411.934 8.48272H404.314L403.534 13.4374H411.918L411.653 15.1374H401.481L403.821 0.256057H413.861Z" fill="#672C25"/>
<path d="M426.186 0.000281829C427.677 0.000281829 429.069 0.340281 430.219 0.998948L429.938 2.78561C428.97 2.06295 427.619 1.70162 426.213 1.70162C423.129 1.70162 419.626 3.55228 418.937 7.80162C418.29 11.7789 421.309 13.6936 424.397 13.6936C425.926 13.6936 427.365 13.3309 428.502 12.6083L428.222 14.3949C426.886 15.0309 425.339 15.3936 423.745 15.3936C419.999 15.3936 416.33 12.7563 417.13 7.80162C417.963 2.63762 422.314 0.000281829 426.186 0.000281829Z" fill="#672C25"/>
<path d="M446.489 0.256057L446.22 1.95739H440.989L438.916 15.1374H437.129L439.2 1.95739H433.967L434.235 0.256057H446.489Z" fill="#672C25"/>
<path d="M457.013 1.95727H452.845L452.116 6.59193H456.774C458.33 6.59193 459.788 5.9746 460.057 4.27194C460.333 2.5106 459.122 1.95727 457.013 1.95727ZM456.469 8.2906H451.85L451.041 13.4373H455.169C457.04 13.4373 459.232 13.3093 459.616 10.8653C459.98 8.54527 457.892 8.2906 456.469 8.2906V8.2906ZM457.432 0.255935C460.473 0.255935 462.296 1.5106 461.901 4.0186C461.605 5.9106 460.229 6.97327 459.002 7.31327C460.182 7.6546 461.772 8.63327 461.392 11.0559C460.862 14.4373 457.432 15.1373 455.262 15.1373H448.985L451.325 0.255935H457.432Z" fill="#672C25"/>
<path d="M475.182 1.70131C471.142 1.70131 468.745 4.63464 468.265 7.69731C467.784 10.7586 469.257 13.6933 473.302 13.6933C477.344 13.6933 479.738 10.7586 480.221 7.69731C480.702 4.63464 479.226 1.70131 475.182 1.70131ZM475.453 -2.33469e-05C480.662 -2.33469e-05 482.634 3.84798 482.029 7.69731C481.426 11.5453 478.245 15.3933 473.033 15.3933C467.822 15.3933 465.854 11.5453 466.457 7.69731C467.061 3.84798 470.241 -2.33469e-05 475.453 -2.33469e-05" fill="#672C25"/>
<path d="M138.622 28.1187C138.274 28.0547 137.641 27.9227 136.628 27.9227C134.468 27.9227 132.592 28.8401 132.237 31.0961C131.92 33.1241 133.616 34.2041 135.872 34.2041C136.526 34.2041 137.217 34.1707 137.684 34.1067L138.622 28.1187ZM123.488 46.4387C124.058 45.7201 124.553 44.8694 124.989 43.9521C126.266 41.4347 127.194 38.8494 129.116 37.2481C129.684 36.7561 130.394 36.3961 131.126 36.1014L131.142 36.0027C128.76 35.5467 126.836 33.8441 127.338 30.6387C127.661 28.5774 128.822 27.0081 130.36 25.9614C132.266 24.6521 135.016 24.2267 137.828 24.2267C140.249 24.2267 142.54 24.4241 144.101 24.6854L140.692 46.4387H135.752L137.11 37.7707H135.9C134.921 37.7707 134.088 38.0641 133.414 38.6201C131.796 39.9614 130.798 42.7761 129.862 44.5761C129.532 45.2294 129.286 45.7534 128.786 46.4387H123.488Z" fill="#672C25"/>
<path d="M152.124 34.6948C152.534 34.7934 153.05 34.8241 153.77 34.8241C156.42 34.8241 158.265 33.4841 158.62 31.2268C158.937 29.1974 157.72 27.9894 155.234 27.9894C154.221 27.9894 153.517 28.0881 153.144 28.1854L152.124 34.6948ZM148.753 24.6854C150.33 24.4228 152.52 24.2254 155.561 24.2254C158.636 24.2254 160.736 24.8148 162.024 25.9934C163.254 27.1054 163.917 28.9374 163.58 31.0961C163.242 33.2548 162.232 35.0868 160.73 36.3308C158.778 37.9334 156.146 38.6521 153.204 38.6521C152.549 38.6521 151.965 38.6201 151.518 38.5561L150.282 46.4388H145.342L148.753 24.6854Z" fill="#672C25"/>
<path d="M170.551 35.4794C169.875 39.798 171.425 42.8407 174.762 42.8407C178.131 42.8407 180.565 39.634 181.235 35.3474C181.855 31.3914 180.49 27.9887 177.057 27.9887C173.689 27.9887 171.222 31.194 170.551 35.4794ZM186.527 35.186C185.395 42.4154 180.325 46.7994 173.881 46.7994C167.338 46.7994 164.287 41.8594 165.271 35.578C166.306 28.97 171.298 24.0314 177.809 24.0314C184.577 24.0314 187.482 29.1007 186.527 35.186" fill="#672C25"/>
<path d="M204.659 45.8167C203.671 46.2767 201.535 46.7661 198.852 46.7661C191.232 46.7661 188.051 42.0221 189.035 35.7421C190.215 28.2181 196.233 24.0314 202.905 24.0314C205.489 24.0314 207.372 24.5541 208.183 25.0114L206.545 28.9701C205.6 28.5434 204.253 28.1514 202.488 28.1514C198.532 28.1514 195.083 30.5407 194.315 35.4474C193.623 39.8647 195.801 42.6447 200.251 42.6447C201.753 42.6447 203.476 42.3167 204.516 41.9261L204.659 45.8167Z" fill="#672C25"/>
<path d="M229.022 24.3894L225.568 46.4388H220.597L223.412 28.4801H218.408L217.586 33.7148C216.7 39.3734 215.298 43.7228 211.653 45.6854C210.444 46.3068 208.869 46.7654 207.104 46.7654L207.112 42.7428C208.21 42.6121 209.166 42.1521 209.813 41.5654C211.372 40.1908 212.14 37.3774 212.664 34.0401L214.174 24.3894H229.022Z" fill="#672C25"/>
<path d="M242.452 37.0491L241.813 32.3717C241.626 31.0637 241.488 29.4277 241.366 28.1184H241.302C240.769 29.4277 240.182 31.0971 239.621 32.3717L237.578 37.0491H242.452ZM236.273 40.7797L233.817 46.4384H228.649L238.841 24.3891H245.384L248.762 46.4384H243.402L242.588 40.7797H236.273Z" fill="#672C25"/>
<path d="M259.07 33.1239H260.708C263.321 33.1239 264.901 32.0439 265.156 30.4093C265.416 28.7413 264.277 27.8586 262.021 27.8586C260.942 27.8586 260.313 27.9226 259.876 27.9893L259.07 33.1239ZM257.54 42.9053C258.02 42.9719 258.605 42.9719 259.458 42.9719C261.714 42.9719 263.841 42.1213 264.206 39.7986C264.553 37.5719 262.7 36.6906 260.213 36.6906H258.513L257.54 42.9053ZM255.453 24.6853C256.804 24.4239 259.484 24.2266 261.969 24.2266C265.01 24.2266 266.828 24.5213 268.282 25.4706C269.69 26.2879 270.568 27.7919 270.257 29.7893C269.948 31.7506 268.517 33.5839 265.885 34.4986L265.877 34.5639C268.288 35.2506 269.857 37.1479 269.41 39.9959C269.096 41.9892 267.934 43.5599 266.386 44.6732C264.585 45.9479 261.79 46.6693 257.406 46.6693C254.954 46.6693 253.148 46.5052 252.061 46.3399L255.453 24.6853Z" fill="#672C25"/>
<path d="M288.29 45.8167C287.304 46.2767 285.166 46.7661 282.484 46.7661C274.864 46.7661 271.682 42.0221 272.666 35.7421C273.845 28.2181 279.866 24.0314 286.536 24.0314C289.122 24.0314 291.002 24.5541 291.813 25.0114L290.176 28.9701C289.23 28.5434 287.885 28.1514 286.12 28.1514C282.164 28.1514 278.714 30.5407 277.946 35.4474C277.253 39.8647 279.434 42.6447 283.881 42.6447C285.386 42.6447 287.106 42.3167 288.149 41.9261L288.29 45.8167Z" fill="#672C25"/>
<path d="M300.193 24.3894L298.757 33.5494H299.183L306.702 24.3894H312.753L303.533 34.1694C306.269 34.8921 307.234 36.8548 307.735 39.5028C308.151 41.8588 308.497 44.2468 309.198 46.4388H303.837C303.318 44.9334 303.159 43.2321 302.891 41.5974C302.527 39.1108 301.817 37.2134 299.131 37.2134H298.186L296.737 46.4388H291.797L295.254 24.3894H300.193Z" fill="#672C25"/>
<path d="M319.957 24.3894L318.93 30.9334C318.377 34.4668 317.765 37.9654 317.108 40.9108H317.238C318.788 38.3254 320.714 35.4161 322.393 33.0601L328.493 24.3894H333.597L330.141 46.4388H325.564L326.582 39.9281C327.117 36.5254 327.652 33.5174 328.397 30.6388H328.302C326.878 33.2548 325.013 36.1668 323.341 38.4894L317.612 46.4388H311.925L315.378 24.3894H319.957Z" fill="#672C25"/>
<path d="M346.725 19.3525C346.559 20.6298 346.804 21.3471 347.853 21.3471C348.865 21.3471 349.372 20.6298 349.701 19.3525H353.039C352.403 22.1645 350.381 23.3765 347.469 23.3765C344.591 23.3765 343.157 22.1005 343.323 19.3525H346.725ZM342.861 24.3898L341.837 30.9338C341.281 34.4658 340.669 37.9658 340.015 40.9111H340.144C341.693 38.3258 343.62 35.4151 345.297 33.0605L351.397 24.3898H356.501L353.047 46.4391H348.465L349.488 39.9285C350.019 36.5258 350.559 33.5178 351.301 30.6378H351.205C349.78 33.2551 347.92 36.1671 346.248 38.4898L340.519 46.4391H334.825L338.283 24.3898H342.861Z" fill="#672C25"/>
<path d="M373.366 25.7957C375.05 24.8797 377.47 24.0317 380.512 24.0317C385.354 24.0317 387.822 26.4504 387.312 29.6904C386.882 32.4371 384.731 34.2704 382.082 34.8917L382.071 34.9557C384.763 35.3171 386.887 37.2131 386.419 40.1904C385.651 45.0984 380.412 46.7997 376.29 46.7997C374.003 46.7997 371.59 46.3077 369.923 45.2611L371.568 41.4344C372.47 41.9584 374.639 42.7424 376.695 42.7424C379.215 42.7424 380.919 41.6971 381.204 39.8637C381.588 37.4104 379.114 36.9197 377.055 36.9197H374.96L375.538 33.2544H377.595C379.854 33.2544 381.719 32.2077 381.988 30.4744C382.212 29.0357 381.158 28.0544 379.034 28.0544C377.332 28.0544 375.324 28.7411 373.987 29.3624L373.366 25.7957Z" fill="#672C25"/>
<path d="M401.509 37.0491L400.865 32.3717C400.677 31.0637 400.542 29.4277 400.421 28.1184H400.356C399.822 29.4277 399.233 31.0971 398.672 32.3717L396.632 37.0491H401.509ZM395.326 40.7797L392.87 46.4384H387.702L397.896 24.3891H404.437L407.818 46.4384H402.454L401.641 40.7797H395.326Z" fill="#672C25"/>
<path d="M418.452 33.1239H420.089C422.702 33.1239 424.28 32.0439 424.536 30.4093C424.8 28.7413 423.658 27.8586 421.402 27.8586C420.324 27.8586 419.694 27.9226 419.257 27.9893L418.452 33.1239ZM416.92 42.9053C417.4 42.9719 417.986 42.9719 418.838 42.9719C421.096 42.9719 423.225 42.1213 423.589 39.7986C423.937 37.5719 422.081 36.6906 419.594 36.6906H417.893L416.92 42.9053ZM414.837 24.6853C416.185 24.4239 418.865 24.2266 421.35 24.2266C424.392 24.2266 426.212 24.5213 427.664 25.4706C429.074 26.2879 429.949 27.7919 429.636 29.7893C429.328 31.7506 427.9 33.5839 425.269 34.4986L425.261 34.5639C427.666 35.2506 429.236 37.1479 428.788 39.9959C428.477 41.9892 427.313 43.5599 425.77 44.6732C423.964 45.9479 421.168 46.6693 416.785 46.6693C414.333 46.6693 412.525 46.5052 411.44 46.3399L414.837 24.6853Z" fill="#672C25"/>
<path d="M437.681 35.4794C437.005 39.798 438.553 42.8407 441.893 42.8407C445.26 42.8407 447.696 39.634 448.366 35.3474C448.984 31.3914 447.622 27.9887 444.186 27.9887C440.818 27.9887 438.35 31.194 437.681 35.4794ZM453.657 35.186C452.526 42.4154 447.453 46.7994 441.01 46.7994C434.469 46.7994 431.417 41.8594 432.401 35.578C433.437 28.97 438.429 24.0314 444.937 24.0314C451.706 24.0314 454.61 29.1007 453.657 35.186" fill="#672C25"/>
<path d="M465.055 31.3915C464.655 33.9435 463.937 36.4288 462.935 38.6528C462.332 39.9955 461.564 41.3355 460.811 42.3822H468.139L470.321 28.4462H465.517L465.055 31.3915ZM475.963 24.3902L473.121 42.5128L475.292 42.6448L473.591 52.0342H469.8L470.415 46.4395H457.527L456.388 52.0342H452.593L453.871 42.6448L455.72 42.5128C456.853 40.9435 457.821 39.3408 458.583 37.6062C459.553 35.3822 460.191 32.9942 460.613 30.2782L461.537 24.3902H475.963Z" fill="#672C25"/>
<path d="M141.374 58.1532L137.92 80.2012H132.916L135.73 62.2452H127.912L125.098 80.2012H120.094L123.548 58.1532H141.374Z" fill="#672C25"/>
<path d="M154.28 70.8128L153.639 66.1354C153.451 64.8261 153.315 63.1901 153.194 61.8808H153.128C152.596 63.1901 152.007 64.8608 151.447 66.1354L149.406 70.8128H154.28ZM148.1 74.5448L145.646 80.2021H140.478L150.67 58.1528H157.211L160.592 80.2021H155.23L154.414 74.5448H148.1Z" fill="#672C25"/>
<path d="M170.162 68.4572C170.573 68.5559 171.089 68.5866 171.809 68.5866C174.458 68.5866 176.303 67.2466 176.657 64.9919C176.975 62.9612 175.757 61.7519 173.273 61.7519C172.259 61.7519 171.555 61.8492 171.181 61.9492L170.162 68.4572ZM166.791 58.4479C168.369 58.1866 170.558 57.9892 173.602 57.9892C176.674 57.9892 178.774 58.5786 180.062 59.7572C181.293 60.8692 181.957 62.6999 181.618 64.8599C181.279 67.0186 180.273 68.8492 178.77 70.0932C176.817 71.6986 174.185 72.4146 171.242 72.4146C170.587 72.4146 170.003 72.3839 169.557 72.3186L168.322 80.2012H163.382L166.791 58.4479Z" fill="#672C25"/>
<path d="M192.434 70.8128L191.793 66.1354C191.606 64.8261 191.469 63.1901 191.348 61.8808H191.282C190.75 63.1901 190.162 64.8608 189.601 66.1354L187.56 70.8128H192.434ZM186.254 74.5448L183.801 80.2021H178.632L188.824 58.1528H195.365L198.746 80.2021H193.384L192.569 74.5448H186.254Z" fill="#672C25"/>
<path d="M214.446 75.6564C216.413 75.4284 219.154 73.7911 219.887 69.1111C220.614 64.4671 218.515 62.8311 216.498 62.5697L214.446 75.6564ZM211.821 62.5697C209.85 62.8311 207.098 64.5297 206.369 69.1791C205.693 73.4951 207.847 75.3911 209.769 75.6564L211.821 62.5697ZM217.363 57.2377L217.061 59.1644C221.687 59.4937 225.969 62.2444 224.891 69.1111C223.826 75.9164 218.815 78.6631 213.87 79.1231L213.557 81.1177H208.879L209.193 79.1231C204.473 78.7631 200.289 76.0457 201.349 69.2751C202.442 62.3071 208.077 59.5284 212.385 59.1644L212.687 57.2377H217.363Z" fill="#672C25"/>
<path d="M234.337 58.1532L233.312 64.6972C232.759 68.2292 232.145 71.7292 231.489 74.6746H231.62C233.171 72.0879 235.096 69.1799 236.773 66.8239L242.872 58.1532H247.979L244.525 80.2012H239.944L240.964 73.6932C241.496 70.2906 242.033 67.2786 242.779 64.4012H242.681C241.257 67.0186 239.395 69.9306 237.723 72.2519L231.995 80.2012H226.305L229.759 58.1532H234.337Z" fill="#672C25"/>
<path d="M257.177 58.1532L255.848 66.6239H264.06L265.384 58.1532H270.356L266.901 80.2012H261.929L263.376 70.9759H255.168L253.724 80.2012H248.716L252.17 58.1532H257.177Z" fill="#672C25"/>
<path d="M277.066 69.2412C276.39 73.5598 277.944 76.6038 281.278 76.6038C284.65 76.6038 287.081 73.3972 287.75 69.1118C288.373 65.1545 287.008 61.7518 283.574 61.7518C280.204 61.7518 277.738 64.9558 277.066 69.2412ZM293.042 68.9505C291.912 76.1785 286.841 80.5625 280.396 80.5625C273.856 80.5625 270.802 75.6225 271.789 69.3398C272.822 62.7332 277.814 57.7932 284.328 57.7932C291.094 57.7932 293.998 62.8625 293.042 68.9505" fill="#672C25"/>
<path d="M303.391 69.9632L302.871 73.2672H294.307L294.823 69.9632H303.391Z" fill="#672C25"/>
<path d="M311.794 66.8883H313.432C316.044 66.8883 317.622 65.8083 317.877 64.1723C318.14 62.5043 316.998 61.6216 314.745 61.6216C313.664 61.6216 313.037 61.687 312.6 61.751L311.794 66.8883ZM310.262 76.6683C310.74 76.7336 311.326 76.7336 312.178 76.7336C314.438 76.7336 316.565 75.8856 316.929 73.5603C317.28 71.335 315.421 70.451 312.937 70.451H311.233L310.262 76.6683ZM308.177 58.4483C309.525 58.187 312.205 57.9896 314.693 57.9896C317.732 57.9896 319.552 58.2843 321.004 59.2323C322.417 60.051 323.289 61.555 322.978 63.551C322.67 65.515 321.24 67.3456 318.609 68.263L318.6 68.327C321.009 69.0123 322.578 70.9123 322.132 73.7576C321.82 75.755 320.656 77.3243 319.108 78.435C317.306 79.711 314.51 80.4323 310.128 80.4323C307.676 80.4323 305.869 80.2683 304.782 80.103L308.177 58.4483Z" fill="#672C25"/>
<path d="M330.203 69.2412C329.527 73.5598 331.08 76.6038 334.415 76.6038C337.787 76.6038 340.218 73.3972 340.887 69.1118C341.51 65.1545 340.144 61.7518 336.711 61.7518C333.34 61.7518 330.875 64.9558 330.203 69.2412ZM346.179 68.9505C345.048 76.1785 339.978 80.5625 333.532 80.5625C326.992 80.5625 323.939 75.6225 324.926 69.3398C325.959 62.7332 330.951 57.7932 337.463 57.7932C344.231 57.7932 347.135 62.8625 346.179 68.9505" fill="#672C25"/>
<path d="M363.819 79.5803C362.83 80.0403 360.692 80.5283 358.012 80.5283C350.392 80.5283 347.208 75.7857 348.195 69.503C349.375 61.9803 355.395 57.7937 362.064 57.7937C364.651 57.7937 366.531 58.3163 367.342 58.775L365.704 62.7337C364.759 62.307 363.414 61.915 361.648 61.915C357.69 61.915 354.24 64.3017 353.472 69.211C352.782 73.6283 354.963 76.407 359.41 76.407C360.915 76.407 362.635 76.0817 363.675 75.6883L363.819 79.5803Z" fill="#672C25"/>
<path d="M375.23 58.1532L373.797 67.3146H374.224L381.74 58.1532H387.79L378.572 67.9319C381.306 68.6546 382.274 70.6186 382.773 73.2666C383.189 75.6226 383.536 78.0092 384.238 80.2012H378.877C378.358 78.6972 378.197 76.9959 377.932 75.3599C377.569 72.8746 376.854 70.9759 374.172 70.9759H373.224L371.777 80.2012H366.837L370.292 58.1532H375.23Z" fill="#672C25"/>
<path d="M391.884 69.2412C391.205 73.5598 392.756 76.6038 396.096 76.6038C399.463 76.6038 401.896 73.3972 402.568 69.1118C403.187 65.1545 401.82 61.7518 398.387 61.7518C395.021 61.7518 392.553 64.9558 391.884 69.2412ZM407.86 68.9505C406.727 76.1785 401.653 80.5625 395.213 80.5625C388.668 80.5625 385.62 75.6225 386.601 69.3398C387.64 62.7332 392.632 57.7932 399.139 57.7932C405.908 57.7932 408.811 62.8625 407.86 68.9505" fill="#672C25"/>
<path d="M416.234 66.8883H417.87C420.488 66.8883 422.065 65.8083 422.321 64.1723C422.581 62.5043 421.444 61.6216 419.185 61.6216C418.109 61.6216 417.476 61.687 417.04 61.751L416.234 66.8883ZM414.702 76.6683C415.185 76.7336 415.772 76.7336 416.624 76.7336C418.877 76.7336 421.008 75.8856 421.372 73.5603C421.718 71.335 419.865 70.451 417.376 70.451H415.678L414.702 76.6683ZM412.618 58.4483C413.969 58.187 416.65 57.9896 419.133 57.9896C422.176 57.9896 423.993 58.2843 425.448 59.2323C426.857 60.051 427.734 61.555 427.42 63.551C427.11 65.515 425.682 67.3456 423.053 68.263L423.042 68.327C425.453 69.0123 427.02 70.9123 426.573 73.7576C426.26 75.755 425.097 77.3243 423.552 78.435C421.748 79.711 418.956 80.4323 414.572 80.4323C412.12 80.4323 410.313 80.2683 409.226 80.103L412.618 58.4483Z" fill="#672C25"/>
<path d="M434.647 69.2412C433.972 73.5598 435.524 76.6038 438.859 76.6038C442.231 76.6038 444.662 73.3972 445.332 69.1118C445.955 65.1545 444.588 61.7518 441.156 61.7518C437.786 61.7518 435.32 64.9558 434.647 69.2412ZM450.624 68.9505C449.492 76.1785 444.423 80.5625 437.976 80.5625C431.438 80.5625 428.383 75.6225 429.37 69.3398C430.403 62.7332 435.396 57.7932 441.908 57.7932C448.676 57.7932 451.58 62.8625 450.624 68.9505" fill="#672C25"/>
<path d="M463.875 53.1148C463.708 54.3921 463.954 55.1108 465.003 55.1108C466.015 55.1108 466.519 54.3921 466.851 53.1148H470.186C469.55 55.9281 467.528 57.1401 464.619 57.1401C461.74 57.1401 460.304 55.8641 460.472 53.1148H463.875ZM460.011 58.1535L458.984 64.6975C458.431 68.2281 457.819 71.7295 457.162 74.6748H457.291C458.843 72.0881 460.77 69.1788 462.447 66.8241L468.544 58.1535H473.651L470.196 80.2015H465.615L466.635 73.6935C467.168 70.2908 467.706 67.2788 468.452 64.4001H468.352C466.93 67.0188 465.068 69.9295 463.395 72.2521L457.668 80.2015H451.975L455.43 58.1535H460.011Z" fill="#672C25"/>
<path d="M135.537 9.8863H142.153L140.204 2.65696C140.15 2.4663 140.112 2.29563 140.061 2.08363C139.944 2.29563 139.849 2.4663 139.736 2.65696L135.537 9.8863ZM130.542 15.137L139.368 0.25563H141.348L145.477 15.137H143.561L142.596 11.5463H134.573L132.48 15.137H130.542Z" fill="#672C25"/>
<path d="M136.084 91.9195L132.629 113.966H127.624L130.439 96.0061H122.62L119.807 113.966H114.803L118.257 91.9195H136.084Z" fill="#672C25"/>
<path d="M143.569 102.224C143.979 102.32 144.495 102.355 145.215 102.355C147.865 102.355 149.71 101.012 150.065 98.7549C150.382 96.7269 149.163 95.5162 146.679 95.5162C145.666 95.5162 144.963 95.6122 144.59 95.7109L143.569 102.224ZM140.198 92.2095C141.777 91.9509 143.965 91.7522 147.009 91.7522C150.081 91.7522 152.181 92.3429 153.469 93.5189C154.699 94.6335 155.363 96.4642 155.025 98.6255C154.686 100.783 153.679 102.614 152.177 103.856C150.223 105.46 147.591 106.183 144.649 106.183C143.994 106.183 143.41 106.148 142.963 106.084L141.729 113.967H136.789L140.198 92.2095Z" fill="#672C25"/>
<path d="M161.508 103.009C160.832 107.325 162.383 110.369 165.72 110.369C169.09 110.369 171.522 107.161 172.192 102.879C172.814 98.9187 171.45 95.516 168.014 95.516C164.646 95.516 162.179 98.724 161.508 103.009ZM177.486 102.712C176.352 109.943 171.282 114.327 164.838 114.327C158.295 114.327 155.244 109.387 156.23 103.104C157.264 96.4973 162.256 91.556 168.767 91.556C175.535 91.556 178.439 96.628 177.486 102.712" fill="#672C25"/>
<path d="M188.064 98.9182C187.664 101.472 186.946 103.954 185.944 106.182C185.341 107.522 184.574 108.862 183.821 109.912H191.148L193.332 95.9756H188.525L188.064 98.9182ZM198.973 91.9196L196.132 110.042L198.302 110.172L196.601 119.56H192.81L193.424 113.966H180.537L179.398 119.56H175.604L176.878 110.172L178.73 110.042C179.861 108.47 180.832 106.869 181.593 105.133C182.564 102.91 183.2 100.521 183.625 97.8036L184.548 91.9196H198.973Z" fill="#672C25"/>
<path d="M206.961 91.9196L208.951 99.6702C209.293 101.24 209.545 102.55 209.827 103.892H209.925C210.367 102.942 210.96 101.472 211.807 99.6076L215.399 91.9196H220.632L214.833 102.614C212.956 106.05 211.059 109.388 209.104 111.413C207.383 113.216 205.377 114.328 202.795 114.328C201.649 114.328 200.984 114.194 200.4 113.966L201.383 109.974C201.759 110.073 202.275 110.138 202.993 110.138C204.532 110.138 205.741 109.092 206.292 108.078C206.544 107.721 206.493 107.424 206.387 107.065L201.336 91.9196H206.961Z" fill="#672C25"/>
<path d="M227.413 91.9195L225.977 101.077H226.403L233.921 91.9195H239.975L230.752 101.699C233.485 102.417 234.455 104.381 234.956 107.031C235.369 109.387 235.715 111.777 236.419 113.966H231.056C230.537 112.462 230.38 110.761 230.113 109.125C229.749 106.639 229.033 104.741 226.352 104.741H225.404L223.959 113.966H219.019L222.473 91.9195H227.413Z" fill="#672C25"/>
<path d="M247.111 91.9195L244.296 109.876H252.015L254.829 91.9195H259.801L256.96 110.042L259.161 110.172L257.464 119.56H253.672L254.284 113.966H238.649L242.104 91.9195H247.111Z" fill="#672C25"/>
<path d="M269.228 91.9195L268.2 98.4581C267.648 101.994 267.033 105.494 266.376 108.437H266.506C268.06 105.855 269.984 102.942 271.664 100.586L277.761 91.9195H282.868L279.412 113.966H274.832L275.85 107.457C276.385 104.055 276.921 101.046 277.668 98.1688H277.57C276.146 100.782 274.282 103.694 272.609 106.015L266.885 113.966H261.193L264.646 91.9195H269.228Z" fill="#672C25"/>
<path d="M291.641 91.9195L290.617 98.4581C290.062 101.994 289.449 105.494 288.794 108.437H288.925C290.473 105.855 292.399 102.942 294.077 100.586L300.179 91.9195H305.281L301.827 113.966H297.249L298.269 107.457C298.801 104.055 299.338 101.046 300.082 98.1688H299.989C298.559 100.782 296.701 103.694 295.027 106.015L289.298 113.966H283.609L287.065 91.9195H291.641Z" fill="#672C25"/>
</g>
<defs>
<linearGradient id="paint0_linear" x1="55.7721" y1="-3.81879" x2="118.826" y2="80.9916" gradientUnits="userSpaceOnUse">
<stop stop-color="#F89734"/>
<stop offset="0.175827" stop-color="#F89734"/>
<stop offset="0.75824" stop-color="#672C25"/>
<stop offset="1" stop-color="#672C25"/>
</linearGradient>
<clipPath id="clip0">
<rect width="483" height="120" fill="white"/>
</clipPath>
</defs>
</svg>
